<?xml version="1.0" encoding="UTF-8"?>
<svg id="Layer_2" data-name="Layer 2" xmlns="http://www.w3.org/2000/svg" viewBox="0 0 342.15 149">
  <defs>
    <style>
      .cls-1 {
        fill: #18337d;
      }

      .cls-2 {
        fill: #fe5e3b;
      }
    </style>
  </defs>
  <g id="Layer_1-2" data-name="Layer 1">
    <g id="Vecteur">
      <path class="cls-2" d="M209.11,8.57l.8-.08c3.95-.38,26.48-.51,33.68.69,2.94.48,5.79,1.39,8.47,2.69,5.39,2.59,9.44,6.97,11.42,12.65,2.22,6.4,2.08,14.93-.92,21.06-2.63,5.39-7.66,9.79-13.35,11.72h0c3.58,3.84,11.76,13.38,14.08,17.69.54,1.01.86,1.99.94,3.13.12,1.89-.46,3.69-1.73,5.11-1.48,1.65-3.68,2.63-5.88,2.74-2.93.15-5.36-1.07-7.49-3-6.1-7.34-11.99-14.98-17.76-22.58h0c-4.57.31-9.38.4-13.95.07.45,4.13.66,14.54-.07,18.55-.23,1.29-.71,2.58-1.44,3.67-1.13,1.7-2.91,2.78-4.9,3.17-2.29.44-4.8-.1-6.73-1.42-1.66-1.13-2.52-2.63-2.88-4.58-.41-4.38-.39-12.92-.39-12.92l.02-21.29v-17.82s.06-11.24.06-11.24c0,0,.48-3.34,1.49-4.77,1.56-2.22,4.01-2.8,6.52-3.25ZM218.05,45.92c6.22-.18,16.28.89,21.84-.67,2-.56,3.67-1.54,5.21-2.92h0c2.11-2.29,3.34-5.17,3.21-8.33-.1-2.59-1.46-5.35-3.21-7.19-.13-.13-.26-.24-.42-.34-6.46-4.01-19.14-2.42-26.56-2.52.07,3.71-.07,21.96-.07,21.96Z"/>
      <path class="cls-1" d="M91.38,9.07c.8.06,1.63.17,2.4.37,5.84,1.47,5.19,7.53,6.16,12.13.53,2.42,1.46,4.73,2.75,6.83,3.05,4.96,8.07,8.33,13.7,9.65,5.37,1.27,11.34.21,16.01-2.7,4.97-3.09,8.74-8.19,9.93-13.96.46-2.23.44-4.53.96-6.76.44-1.86,1.35-3.28,3-4.28,1.88-1.13,4.12-1.46,6.25-.93,1.88.47,3.59,1.62,4.59,3.29,2.04,3.41,1.11,8.99.18,12.68-2.17,8.6-7.64,17.47-15.39,22.11.1.06.19.12.28.18,7.38,4.65,12.61,13.57,14.52,21.93.83,3.62,1.78,8.85-.32,12.16-1.5,2.36-3.66,3.13-6.25,3.69-8.36-1.08-7.2-5.96-8.57-12.52-.67-3.17-2.06-6.14-4.06-8.69-3.41-4.37-8.83-7.57-14.36-8.23-5.81-.67-11.65.99-16.25,4.62-5.06,4.02-7.33,9.35-8.07,15.65-.32,2.76-.59,5.5-2.94,7.32-1.72,1.33-3.9,1.93-6.06,1.67-1.91-.24-3.82-1.32-4.99-2.86-2-2.65-1.74-6.28-1.32-9.39,1.5-11.14,7.05-19.36,15.86-26.06-8.1-6.07-13.22-14.31-14.98-24.31-.58-3.29-1.05-7.48.99-10.35,1.48-2.07,3.55-2.83,5.97-3.23Z"/>
      <path class="cls-2" d="M119.03,13.34c4.52-.85,8.9,2.06,9.86,6.56.97,4.5-1.82,8.95-6.29,10.04-3,.73-6.17-.22-8.26-2.49-2.1-2.27-2.79-5.5-1.82-8.44.97-2.93,3.46-5.11,6.5-5.67Z"/>
      <path class="cls-1" d="M0,77.14c0-.05.01-.1.04-.15,2.52-4.52,5.31-11.98,7.49-16.93l14.7-33.08c2.02-4.54,4.25-11.11,7-15.05,1.33-1.9,3.08-3.18,5.33-3.81,2.89-.8,6.4-.58,9.03.92,1.82,1.04,3.11,2.71,4.13,4.51,2.02,3.61,3.49,7.69,5.15,11.48l8.58,19.32,8.83,19.88c1.68,3.76,3.78,7.71,5.01,11.68,1.04,3.37-.02,7.14-2.98,9.07-.71.46-1.49.81-2.33,1.03-1.95.51-4.21.28-5.95-.77-1.2-.72-2.12-1.8-2.88-2.95-1.83-2.78-5.21-10.56-6.14-13.93-.04-.14-.16-.22-.3-.22-11.25.06-22.5.06-33.74-.03-.13,0-.24.07-.29.19-1.98,5.01-5.22,15.35-10.12,17.47-1.8.78-3.76.84-5.58.09-2.49-1.02-3.67-2.95-4.92-5.16-.03-.05-.04-.1-.04-.16v-3.43ZM27.18,53.77l21.1-.1c.22,0,.37-.23.28-.43l-10.7-24.61c-.11-.25-.47-.25-.57,0-.97,2.39-4.28,10.5-6.12,14.85-1.23,2.9-3.59,8.3-4.28,9.86-.09.21.06.43.29.43Z"/>
      <path class="cls-2" d="M325.56,39.26s.17-21.65.22-25.88c0-.17.03-.33.09-.49.69-1.78,2.3-3.17,3.99-4.01,2.07-1.02,4.46-1.18,6.65-.45,2.52.87,4.38,3.07,5.5,5.41v65.93c-.94,1.85-1.68,3.38-3.37,4.71-1.73,1.36-3.87,1.73-6.01,1.46-2.09-.26-4.02-1.22-5.32-2.91-.95-1.24-1.51-2.74-1.76-4.28-.23-3.73-.09-24.29-.09-24.29h-31.69s-.18,18.1-.28,23.97c-.02,1.34-.38,2.65-1.11,3.77s-1.76,2.18-2.75,2.8c-1.77,1.12-3.97,1.21-5.98.76-2.17-.5-4.05-1.71-5.24-3.61-.88-1.41-1.17-4.86-1.17-4.86,0,0-.06-8.4-.05-12.55v-23.62s0-16.66,0-16.66c0,0-.43-7.35.37-10.66.47-1.96,1.62-3.48,3.34-4.52,1.99-1.21,4.38-1.57,6.63-1,1.96.49,3.91,1.69,4.95,3.47.82,1.41,1.1,3.28,1.26,4.88.33,3.26-.23,22.61-.23,22.61,0,0,11.07-.02,16.58-.04,5.14-.01,15.47.06,15.47.06Z"/>
      <path class="cls-1" d="M67.74,147.65c-4.8-1.62-9.05-5.63-11.04-10.25-1.95-4.52-2.01-10.21-.17-14.77,1.92-4.76,5.73-8.24,10.41-10.21,5.4-2.28,12.39-2.26,17.81-.05,4.63,1.89,8.53,5.34,10.46,10.01,1.93,4.78,1.92,10.13-.03,14.91-1.89,4.44-5.47,7.95-9.95,9.74-.96.61-5.47,1.78-9.65,1.77-3.6,0-7.04-.89-7.84-1.15ZM76.62,146.23c5.15-.46,9.67-2,13.08-6.12,2.68-3.23,4.08-7.6,3.67-11.78-.43-4.35-2.58-8.35-5.98-11.1-3.48-2.82-7.61-3.78-12-3.88-5.16.45-9.81,1.91-13.26,6.04-2.87,3.43-4.13,7.75-3.71,12.2.4,4.23,2.55,8.05,5.83,10.73,3.41,2.79,7.99,4.08,12.37,3.91Z"/>
      <path class="cls-1" d="M121.02,149v-38.3h3.01l25.94,31.57.06-31.57h3.73v38.3s-2.67,0-2.67,0l-26.86-32.88v32.88s-3.2,0-3.2,0Z"/>
      <path class="cls-1" d="M231.03,110.7h28.01v3.13s-23.98.06-23.98.06l.02,13.93h21.03s0,2.94,0,2.94h-21.08l.05,15.01,23.96.06v3.16h-28.01v-38.3Z"/>
      <path class="cls-1" d="M178.56,144.08c-.6-.89.57-2.12,1.51-1.82,1.13.18,2.94,1.72,4.08,2.24,4.67,2.13,12.21,2.87,16.74.05,1.66-1.03,2.56-2.24,3-4.14.34-1.47.25-3.01-.58-4.31-5.03-7.86-26.84-2.55-23.73-17.5.5-2.38,2.08-4.28,4.1-5.59,4.15-2.7,10.44-2.68,15.17-1.65,1.89.41,4.92,1.08,6.33,2.4.38.69-.07,1.95-.42,2.07-2.72.69-6.74-4.11-16.59-1.84-1.91.62-3.39,1.33-4.52,3.04-.99,1.49-1.43,3.31-1.06,5.08.32,1.56,1.31,2.71,2.62,3.55,5.97,3.85,19.99,2.72,21.84,11.15.49,2.25.13,4.98-1.14,6.92-1.52,2.32-4.38,3.72-6.98,4.47-.35.1-3.04.6-6.37.6-5.33,0-11.73-2.46-13.99-4.72Z"/>
      <path class="cls-1" d="M13.83,147.74c-4.92-1.6-9.03-4.8-11.33-9.5-2.14-4.35-2.47-10.16-.88-14.73,1.66-4.78,5.16-8.51,9.71-10.67,5.63-2.69,12.37-2.74,18.17-.66,1.2.43,4.72,1.88,5.29,3.06.31.92-.49,2.2-2.39,1.24-1.37-.65-2.89-1.31-3.29-1.5-6.23-2.98-14.45-1.83-19.69,2.61-3.32,2.76-5.36,6.76-5.66,11.08-.34,4.25,1.05,8.46,3.85,11.68,3.07,3.54,7.62,5.45,12.24,5.76,2.96.2,7.12-.09,9.7-1.66,1.13-.69,2.37-1.76,3.64-2.13.74-.21,1.09-.01,1.66.4.29.62.28.69.14,1.37-1.34,1.94-5.13,3.38-7.36,4.02-.55.16-4.05.78-7.39.7-2.93-.07-5.73-.81-6.42-1.04Z"/>
      <path class="cls-1" d="M177.4,0h3.76v93.88h-3.76V0Z"/>
      <path class="cls-1" d="M315.99,149v-38.3h3.73l.02,35.13h22.42s0,3.17,0,3.17h-26.16Z"/>
      <path class="cls-1" d="M283.94,149v-38.3h4.14v38.3h-4.14Z"/>
    </g>
  </g>
</svg>